<svg id="Layer_1" data-name="Layer 1" xmlns="http://www.w3.org/2000/svg" viewBox="0 0 1080 1080"><defs><style>.cls-1{fill:#34495c;}.cls-2{fill:#fff;}</style></defs><rect class="cls-1" x="100.65" y="40.91" width="878.71" height="998.18" rx="9.91"/><path class="cls-2" d="M324.31,383.64h0l-155.54.53a7.51,7.51,0,0,0-7.87,7.83l-.26,174.27-.27,5a2.5,2.5,0,0,0,.26,1.24l-.26,169.27v5.31a2.51,2.51,0,0,0,2.52,2.51h10.69a2.51,2.51,0,0,0,2.52-2.51V574.45H324.31c59.75,0,108.36-42.56,108.36-94.87C432.67,426.68,384.06,383.64,324.31,383.64Zm92.63,95.94c0,43.68-41.55,79.22-92.63,79.22h0l-148.21.5v-160H324.31C375.39,399.29,416.94,435.31,416.94,479.58Z"/><rect class="cls-2" x="508.33" y="383.64" width="15.73" height="365.96" rx="2.52"/><path class="cls-2" d="M916.2,746.09,913,738.66v0L758,388.35a8,8,0,0,0-14.24,0l-155,350.33-3.2,7.43a2.5,2.5,0,0,0,2.31,3.51h11.76a2.51,2.51,0,0,0,2.38-1.71l1-3.08L750.85,411,898.71,744.81l1,3.08a2.53,2.53,0,0,0,2.39,1.71h11.76a2.51,2.51,0,0,0,2.31-3.51Z"/><path class="cls-2" d="M196,861.55h-.42l-26.26-38.24v57.88h-7.93V809.6h8.24l26.26,39.07,26.27-39.07h8.23v71.59h-8.13v-58Z"/><path class="cls-2" d="M318.41,859.46a37.07,37.07,0,0,1-7.52,11.81,35.86,35.86,0,0,1-11.64,8.13,39.23,39.23,0,0,1-30,.05,35.39,35.39,0,0,1-19.05-19.79,38.46,38.46,0,0,1-2.63-14.16,37.74,37.74,0,0,1,2.68-14.17,37.07,37.07,0,0,1,7.52-11.81,35.75,35.75,0,0,1,11.64-8.13,39.23,39.23,0,0,1,30,0,35.39,35.39,0,0,1,19,19.79,38.46,38.46,0,0,1,2.63,14.16A37.94,37.94,0,0,1,318.41,859.46Zm-7.88-25.52a28.44,28.44,0,0,0-5.92-9.41,28.74,28.74,0,0,0-9-6.34,27.43,27.43,0,0,0-11.38-2.35,27.85,27.85,0,0,0-11.38,2.3,26.86,26.86,0,0,0-8.91,6.29,29.47,29.47,0,0,0-5.82,9.36,31.08,31.08,0,0,0-2.11,11.5,31.51,31.51,0,0,0,2.11,11.56A28.13,28.13,0,0,0,273,872.6,27.27,27.27,0,0,0,284.42,875a27.88,27.88,0,0,0,11.38-2.3,26.86,26.86,0,0,0,8.91-6.29,29.47,29.47,0,0,0,5.82-9.36,31.08,31.08,0,0,0,2.11-11.5A31.55,31.55,0,0,0,310.53,833.94Z"/><path class="cls-2" d="M398.84,859.46a33.26,33.26,0,0,1-7.88,11.4,37.42,37.42,0,0,1-12.15,7.57,42.18,42.18,0,0,1-15.5,2.76h-25V809.6h25a43,43,0,0,1,15.5,2.71A36.81,36.81,0,0,1,391,819.83a33.25,33.25,0,0,1,7.88,11.35,35.77,35.77,0,0,1,2.78,14.11A36.17,36.17,0,0,1,398.84,859.46Zm-7.78-25.11a26.55,26.55,0,0,0-6-9.05,27.33,27.33,0,0,0-9.42-6,33.29,33.29,0,0,0-12.36-2.2H346.42v56.65h16.89a33.9,33.9,0,0,0,12.36-2.15,26.48,26.48,0,0,0,15.39-14.93,28.82,28.82,0,0,0,2.12-11.14A29.39,29.39,0,0,0,391.06,834.35Z"/><path class="cls-2" d="M470.93,817H427v24.44H466.3v7.36H427v25.05h44.49v7.37H418.82V809.6h52.11Z"/><path class="cls-2" d="M537.46,881.19l-20.91-27.82H496v27.82h-8.14V809.6h31a35.26,35.26,0,0,1,10.76,1.54,24.27,24.27,0,0,1,8.19,4.35,19.17,19.17,0,0,1,5.25,6.75,20.24,20.24,0,0,1,1.86,8.75,21.09,21.09,0,0,1-1.45,8,18.33,18.33,0,0,1-4.06,6.14,22.85,22.85,0,0,1-6.23,4.35,29.34,29.34,0,0,1-7.83,2.45l22.14,29.23Zm-5.57-60.38q-4.86-3.73-13.63-3.74H496v29.14h22.2a25.81,25.81,0,0,0,7.43-1,18.21,18.21,0,0,0,5.88-2.93,13.27,13.27,0,0,0,3.88-4.67,13.82,13.82,0,0,0,1.39-6.26A12.55,12.55,0,0,0,531.89,820.81Z"/><path class="cls-2" d="M615.32,809.6h7.93v71.59h-6.49l-46.55-58.7v58.7h-7.93V809.6h7.62L615.32,867Z"/><path class="cls-2" d="M652.5,809.6v71.59h-8.14V809.6Z"/><path class="cls-2" d="M671.86,816.76V809.6h56.23V815l-46.76,59h46.76v7.16H670.31v-5.43l46.65-59Z"/><path class="cls-2" d="M753.83,809.6v71.59H745.7V809.6Z"/><path class="cls-2" d="M828,809.6h7.93v71.59h-6.49l-46.55-58.7v58.7h-7.93V809.6h7.62L828,867Z"/><path class="cls-2" d="M906.3,879.2a41,41,0,0,1-16.53,3.21,38.78,38.78,0,0,1-15.29-2.86,33.74,33.74,0,0,1-18.85-19.63,40.91,40.91,0,0,1-2.52-14.42,38.54,38.54,0,0,1,2.63-14.11,37,37,0,0,1,7.36-11.87,34.91,34.91,0,0,1,26.16-11.14,51.59,51.59,0,0,1,8.29.61,36.23,36.23,0,0,1,7,1.84,33.13,33.13,0,0,1,6.08,3,50.39,50.39,0,0,1,5.51,4L910.89,824a36.86,36.86,0,0,0-4.33-3.32,29,29,0,0,0-4.89-2.56,31.24,31.24,0,0,0-5.77-1.69,37.07,37.07,0,0,0-6.95-.61,25.73,25.73,0,0,0-11,2.36,26.8,26.8,0,0,0-8.65,6.35,29.67,29.67,0,0,0-5.66,9.37,31.52,31.52,0,0,0-2.06,11.42,34.39,34.39,0,0,0,2,11.94,27.85,27.85,0,0,0,5.72,9.47,26,26,0,0,0,9,6.25,29.79,29.79,0,0,0,11.84,2.26,32.15,32.15,0,0,0,11.64-2.11,34.2,34.2,0,0,0,9.17-5.08V850.2H889V843h29.76V871.5A46.38,46.38,0,0,1,906.3,879.2Z"/><path class="cls-2" d="M239.26,907.6v71.59h-8.13V907.6Z"/><path class="cls-2" d="M313.41,907.6h7.93v71.59h-6.49l-46.55-58.7v58.7h-7.93V907.6H268L313.41,965Z"/><path class="cls-2" d="M348.84,930a9,9,0,0,0,3,3.74,22,22,0,0,0,6,3.08,72.33,72.33,0,0,0,9.78,2.61q12.06,2.65,17.77,7.37t5.71,13a18.86,18.86,0,0,1-6.87,14.85,23,23,0,0,1-7.75,4.1,32.83,32.83,0,0,1-9.89,1.43,43.67,43.67,0,0,1-15.81-2.77,44.72,44.72,0,0,1-13.64-8.58l5-5.93a42.53,42.53,0,0,0,11.44,7.62,33,33,0,0,0,13.28,2.5q7.32,0,11.69-3.38a10.7,10.7,0,0,0,4.38-8.91,11.88,11.88,0,0,0-.83-4.56,9.11,9.11,0,0,0-2.89-3.63,20.52,20.52,0,0,0-5.73-3,73.49,73.49,0,0,0-9.34-2.56A74.36,74.36,0,0,1,353.35,944a27,27,0,0,1-7.59-4.2,15.45,15.45,0,0,1-4.44-5.73,19.28,19.28,0,0,1-1.44-7.79,17.69,17.69,0,0,1,1.75-7.88,18.34,18.34,0,0,1,4.94-6.2,24.19,24.19,0,0,1,7.52-4.09,29,29,0,0,1,9.48-1.49,40.16,40.16,0,0,1,13.85,2.17,42.23,42.23,0,0,1,11.48,6.52l-4.74,6.24A35.15,35.15,0,0,0,374,915.58a31.08,31.08,0,0,0-10.66-1.84,20.45,20.45,0,0,0-6.33.92,16,16,0,0,0-4.84,2.46,10.5,10.5,0,0,0-3.09,3.69,10.12,10.12,0,0,0-1.09,4.6A12.22,12.22,0,0,0,348.84,930Z"/><path class="cls-2" d="M466.55,948.61a40.33,40.33,0,0,1-2.16,13.81,27,27,0,0,1-6.13,9.92,25.41,25.41,0,0,1-9.47,6,36,36,0,0,1-12.31,2,35.6,35.6,0,0,1-12.2-2,25.64,25.64,0,0,1-9.48-5.93,26.73,26.73,0,0,1-6.13-9.77,38.44,38.44,0,0,1-2.16-13.4V907.6h8.14v41.11q0,11.65,5.82,17.9t16.22,6.24q10,0,15.86-5.93t5.87-17.7V907.6h8.13Z"/><path class="cls-2" d="M535.45,979.19l-20.91-27.82H494v27.82h-8.14V907.6h31a35.26,35.26,0,0,1,10.76,1.54,24.27,24.27,0,0,1,8.19,4.35,19.29,19.29,0,0,1,5.25,6.75,20.24,20.24,0,0,1,1.85,8.75,21.1,21.1,0,0,1-1.44,8,18.21,18.21,0,0,1-4.07,6.14,22.7,22.7,0,0,1-6.23,4.35A29.15,29.15,0,0,1,523.3,950l22.14,29.23Zm-5.57-60.38q-4.86-3.73-13.63-3.74H494v29.14h22.19a25.83,25.83,0,0,0,7.44-1,18.21,18.21,0,0,0,5.88-2.93,13.38,13.38,0,0,0,3.88-4.67,13.82,13.82,0,0,0,1.39-6.26A12.55,12.55,0,0,0,529.88,918.81Z"/><path class="cls-2" d="M627.42,979.19h-8.76l-8.44-18.92H571l-8.55,18.92h-8.34l32.85-72.1h7.62ZM590.65,916.6l-16.48,36.51H607Z"/><path class="cls-2" d="M694.67,907.6h7.93v71.59h-6.49l-46.55-58.7v58.7h-7.93V907.6h7.62L694.67,965Z"/><path class="cls-2" d="M779,973a36.3,36.3,0,0,1-6.54,3.94,37.17,37.17,0,0,1-7.52,2.55,39.74,39.74,0,0,1-9,.92A35.36,35.36,0,0,1,722.52,958a39.71,39.71,0,0,1,0-28.94,37,37,0,0,1,7.57-11.81,35.18,35.18,0,0,1,11.54-8,36.25,36.25,0,0,1,14.62-2.91,44.65,44.65,0,0,1,8.91.81,37.92,37.92,0,0,1,7.36,2.3,33.94,33.94,0,0,1,6.29,3.58,54.69,54.69,0,0,1,5.56,4.66l-5.56,5.93a45.47,45.47,0,0,0-9.94-7.06,27.94,27.94,0,0,0-32.65,5.73,28.9,28.9,0,0,0-5.87,9.36,31.34,31.34,0,0,0-2.11,11.6A31.78,31.78,0,0,0,730.35,955a28.81,28.81,0,0,0,5.87,9.41,27.82,27.82,0,0,0,8.86,6.29,26.66,26.66,0,0,0,11.07,2.3,28,28,0,0,0,12.77-2.71,44.55,44.55,0,0,0,10.5-7.62l5.36,5.22A50,50,0,0,1,779,973Z"/><path class="cls-2" d="M851.1,915h-44v24.44h39.34v7.36H807.13v25.05h44.49v7.37H799V907.6H851.1Z"/></svg>